<?xml version="1.0" encoding="utf-8"?>
<!-- Generator: Adobe Illustrator 20.1.0, SVG Export Plug-In . SVG Version: 6.00 Build 0)  -->
<svg version="1.1" id="Laag_1" xmlns="http://www.w3.org/2000/svg" xmlns:xlink="http://www.w3.org/1999/xlink" x="0px" y="0px"
	 viewBox="0 0 68 68" style="enable-background:new 0 0 68 68;" xml:space="preserve">
<style type="text/css">
	.st0{fill:#76D76D;}
</style>
<path class="st0" d="M0,4.2L0,4.2c2.2,0,4,1.8,4,4v52c0,2.2-1.8,4-4,4l0,0V4.2z"/>
<path class="st0" d="M4.2,68L4.2,68c0-2.2,1.8-4,4-4h52c2.2,0,4,1.8,4,4l0,0H4.2z"/>
<path class="st0" d="M68,63.8L68,63.8c-2.2,0-4-1.8-4-4v-52c0-2.2,1.8-4,4-4l0,0V63.8z"/>
<path class="st0" d="M63.8,0L63.8,0c0,2.2-1.8,4-4,4h-52c-2.2,0-4-1.8-4-4l0,0L63.8,0z"/>
</svg>
