<?xml version="1.0" encoding="utf-8"?>
<!-- Generator: Adobe Illustrator 20.1.0, SVG Export Plug-In . SVG Version: 6.00 Build 0)  -->
<svg version="1.1" id="Layer_1" xmlns="http://www.w3.org/2000/svg" xmlns:xlink="http://www.w3.org/1999/xlink" x="0px" y="0px"
	 viewBox="0 0 70 70" style="enable-background:new 0 0 70 70;" xml:space="preserve">
<style type="text/css">
	.st0{fill:#6061B1;}
</style>
<g>
	<path class="st0" d="M35.6,43.3c-0.1-0.2-0.2-0.4-0.3-0.7c-0.2-0.2-0.3-0.4-0.4-0.6c-0.1-0.2-0.3-0.3-0.5-0.6
		c-0.2-0.2-0.4-0.4-0.5-0.5c-0.1-0.1-0.3-0.3-0.6-0.5C33,40.2,32.8,40,32.7,40s-0.3-0.2-0.6-0.4c-0.3-0.2-0.5-0.4-0.6-0.4
		c-0.2,0-0.5,0-1,0c-0.7,0-1.4,0-2,0.1c-0.7,0.1-1.4,0.2-2.1,0.5c-0.7,0.2-1.3,0.5-1.9,0.9c-0.6,0.4-1,0.8-1.3,1.4s-0.5,1.3-0.5,2.1
		c0,0.9,0.2,1.7,0.7,2.3c0.5,0.7,1.1,1.2,1.8,1.6s1.5,0.7,2.3,0.9c0.8,0.2,1.6,0.3,2.4,0.3s1.5-0.1,2.2-0.2c0.7-0.2,1.3-0.4,1.9-0.8
		c0.6-0.3,1.1-0.8,1.4-1.4c0.3-0.6,0.5-1.3,0.5-2.1c0-0.3,0-0.5-0.1-0.8C35.7,43.8,35.7,43.5,35.6,43.3z"/>
	<path class="st0" d="M32.8,31.2c0.5-0.7,0.8-1.7,0.8-3c0-0.8-0.1-1.6-0.3-2.5c-0.2-0.9-0.5-1.7-0.9-2.5c-0.4-0.8-0.9-1.5-1.6-2
		c-0.7-0.5-1.5-0.8-2.3-0.8c-1.2,0-2.1,0.4-2.8,1.3c-0.7,0.9-1,1.9-1,3.2c0,0.6,0.1,1.2,0.2,1.9c0.1,0.7,0.4,1.3,0.7,2
		c0.3,0.7,0.7,1.3,1.1,1.8s0.9,1,1.5,1.3s1.2,0.5,1.9,0.5C31.3,32.4,32.2,32,32.8,31.2z"/>
	<path class="st0" d="M35,0C15.7,0,0,15.7,0,35c0,19.3,15.7,35,35,35s35-15.7,35-35C70,15.7,54.3,0,35,0z M35.8,48.4
		c-1.9,1.7-4.6,2.5-8.1,2.5c-0.8,0-1.5-0.1-2.3-0.2c-0.8-0.1-1.6-0.3-2.3-0.6c-0.8-0.3-1.5-0.7-2.1-1.1c-0.6-0.4-1.1-1-1.5-1.7
		C19.2,46.7,19,46,19,45.1c0-0.8,0.2-1.6,0.7-2.6c0.4-0.8,1-1.5,1.8-2.1c0.8-0.6,1.8-1.1,2.8-1.4c1-0.3,2-0.5,3-0.7
		c0.9-0.1,1.9-0.2,2.9-0.3c-0.8-1.1-1.2-2-1.2-2.9c0-0.2,0-0.3,0-0.5c0-0.1,0.1-0.3,0.1-0.4c0-0.1,0.1-0.2,0.2-0.4
		c0.1-0.2,0.1-0.3,0.1-0.4c-0.5,0.1-1,0.1-1.3,0.1c-1.9,0-3.5-0.6-4.9-1.9s-2-2.8-2-4.7c0-1.8,0.6-3.4,1.8-4.8
		c1.2-1.3,2.7-2.2,4.5-2.6c1.2-0.3,2.4-0.4,3.6-0.4h8.4l-2.6,1.5h-2.6c0.9,0.6,1.6,1.4,2.1,2.4s0.8,2.1,0.8,3.2
		c0,0.9-0.1,1.8-0.4,2.5c-0.3,0.7-0.7,1.3-1.1,1.8c-0.4,0.4-0.8,0.9-1.3,1.2c-0.4,0.4-0.8,0.8-1.1,1.2c-0.3,0.4-0.4,0.8-0.4,1.3
		c0,0.3,0.1,0.7,0.3,1c0.2,0.3,0.5,0.6,0.8,0.9s0.7,0.6,1.1,0.9c0.4,0.3,0.8,0.7,1.2,1.1c0.4,0.4,0.8,0.8,1.1,1.3s0.6,1,0.8,1.6
		c0.2,0.6,0.3,1.3,0.3,2C38.5,45.1,37.6,46.9,35.8,48.4z M51,26.5h-4.9v4.9h-2.5v-4.9h-4.9V24h4.9v-4.9h2.5V24H51V26.5z"/>
</g>
</svg>
