<?xml version="1.0" encoding="utf-8"?>
<!-- Generator: Adobe Illustrator 20.1.0, SVG Export Plug-In . SVG Version: 6.00 Build 0)  -->
<svg version="1.1" id="Layer_1" xmlns="http://www.w3.org/2000/svg" xmlns:xlink="http://www.w3.org/1999/xlink" x="0px" y="0px"
	 viewBox="0 0 70 70" style="enable-background:new 0 0 70 70;" xml:space="preserve">
<style type="text/css">
	.st0{fill:#6061B1;}
	.st1{fill:#FFFFFF;}
</style>
<path class="st0" d="M35,0C15.7,0,0,15.7,0,35s15.7,35,35,35s35-15.7,35-35S54.3,0,35,0z"/>
<path class="st1" d="M28.1,47.8h-6.3v-22h6.3V47.8z M24.9,22.6c-1.7,0-3.2-1.4-3.2-3.2c0-1.7,1.4-3.2,3.2-3.2s3.2,1.4,3.2,3.2
	C28.1,21.2,26.7,22.6,24.9,22.6z M50.1,47.8h-6.3V35.2c0-1.7-1.4-3.2-3.2-3.2c-1.7,0-3.2,1.4-3.2,3.2v12.5h-6.3v-22h6.3v3.9
	c1.3-1.7,3.3-3.9,5.5-3.9c3.9,0,7.1,3.5,7.1,7.9L50.1,47.8L50.1,47.8z"/>
</svg>
