<?xml version="1.0" encoding="utf-8"?>
<!-- Generator: Adobe Illustrator 20.1.0, SVG Export Plug-In . SVG Version: 6.00 Build 0)  -->
<svg version="1.1" xmlns="http://www.w3.org/2000/svg" xmlns:xlink="http://www.w3.org/1999/xlink" x="0px" y="0px"
	 viewBox="0 0 66 66" style="enable-background:new 0 0 66 66;" xml:space="preserve">
<style type="text/css">
	.st0{fill:#6061B1;}
	.st1{fill:none;}
	.st2{opacity:0;fill:none;}
</style>
<symbol  id="icon-contact-opnemen" viewBox="-32 -34 66 66">
	<g>
		<path class="st0" d="M19.6,23.1c0.8,0,1.6-0.3,2.1-0.9l2.5-2.5c1.2-1.2,1.2-3.1,0-4.2l-38.3-38.3l-10.3-3.6l3.6,10.3l38.3,38.3
			C18.1,22.8,18.8,23.1,19.6,23.1 M19.6,26.1c-1.5,0-3.1-0.6-4.2-1.8l-38.8-38.8l-5.9-16.9l16.9,5.9l38.8,38.8
			c2.3,2.3,2.3,6.1,0,8.5l-2.5,2.5C22.7,25.5,21.1,26.1,19.6,26.1L19.6,26.1z"/>
	</g>
	<rect x="-32" y="-34" class="st1" width="66" height="66"/>
	
		<rect x="-32" y="-34" transform="matrix(4.486793e-11 1 -1 4.486793e-11 2.499952e-04 -1.9998)" class="st2" width="66" height="66"/>
</symbol>
<g id="grid">
</g>
<g id="icons">
	
		<use xlink:href="#icon-contact-opnemen"  width="66" height="66" id="XMLID_3_" x="-32" y="-34" transform="matrix(1 0 0 -1 32 32)" style="overflow:visible;"/>
	<g id="icon-service">
	</g>
</g>
</svg>
