<?xml version="1.0" encoding="utf-8"?>
<!-- Generator: Adobe Illustrator 20.1.0, SVG Export Plug-In . SVG Version: 6.00 Build 0)  -->
<svg version="1.1" id="Laag_1" xmlns="http://www.w3.org/2000/svg" xmlns:xlink="http://www.w3.org/1999/xlink" x="0px" y="0px"
	 viewBox="0 0 66 66" style="enable-background:new 0 0 66 66;" xml:space="preserve">
<style type="text/css">
	.st0{fill:#6061B1;}
	.st1{fill:none;}
</style>
<symbol  id="icon-contact-opnemen" viewBox="-33 -33 66 66">
	<g>
		<g>
			<path class="st0" d="M22.5,26c2,0,3.5-1.5,3.5-3.4V-8.3c0-1.9-1.6-3.5-3.5-3.5H-0.4H-2L-3.2-13l-7.5-7.4v4.5v4h-4h-7.9
				c-1.9,0-3.5,1.6-3.5,3.5v30.9c0,1.9,1.6,3.5,3.5,3.5H22.5 M22.5,30h-45.1c-4.1,0-7.5-3.3-7.5-7.5V-8.4c0-4.1,3.3-7.5,7.5-7.5h7.9
				V-30l14.3,14.2h22.9c4.1,0,7.5,3.3,7.5,7.5v30.9C30,26.7,26.7,30,22.5,30L22.5,30z"/>
		</g>
	</g>
	<rect x="-33" y="-33" class="st1" width="66" height="66"/>
</symbol>
<g id="grid">
</g>
<g id="icons">
	
		<use xlink:href="#icon-contact-opnemen"  width="66" height="66" id="XMLID_3_" x="-33" y="-33" transform="matrix(1 0 0 -1 33 33)" style="overflow:visible;"/>
	<g id="icon-service">
	</g>
</g>
</svg>
