<?xml version="1.0" encoding="utf-8"?>
<!-- Generator: Adobe Illustrator 20.1.0, SVG Export Plug-In . SVG Version: 6.00 Build 0)  -->
<svg version="1.1" id="Laag_1" xmlns="http://www.w3.org/2000/svg" xmlns:xlink="http://www.w3.org/1999/xlink" x="0px" y="0px"
	 viewBox="0 0 70 70" style="enable-background:new 0 0 70 70;" xml:space="preserve">
<style type="text/css">
	.st0{fill:#6061B1;}
</style>
<path class="st0" d="M35,0C15.7,0,0,15.7,0,35c0,19.3,15.7,35,35,35s35-15.7,35-35C70,15.7,54.3,0,35,0z M47.8,28.5
	c0,0.2,0,0.5,0,0.8C47.8,38,41.2,48,29,48c-3.7,0-7.2-1.1-10.1-3c0.5,0.1,1.1,0.1,1.6,0.1c3.1,0,6-1,8.2-2.8c-2.8-0.1-5.3-2-6.1-4.6
	c0.4,0.1,0.8,0.1,1.2,0.1c0.6,0,1.1-0.1,1.7-0.2c-3-0.6-5.3-3.2-5.3-6.4v-0.1c0.9,0.5,1.9,0.8,3,0.8c-1.7-1.2-2.9-3.2-2.9-5.5
	c0-1.2,0.3-2.3,0.9-3.3c3.3,4,8.1,6.6,13.6,6.9c-0.1-0.5-0.2-1-0.2-1.5c0-3.7,3-6.6,6.6-6.6c1.8,0,3.6,0.8,4.7,2.1
	c1.5-0.3,2.9-0.8,4.2-1.6c-0.5,1.5-1.5,2.8-2.9,3.6c1.4-0.1,2.6-0.5,3.8-1C50.2,26.3,49,27.5,47.8,28.5z"/>
</svg>
