<?xml version="1.0" encoding="utf-8"?>
<!-- Generator: Adobe Illustrator 20.1.0, SVG Export Plug-In . SVG Version: 6.00 Build 0)  -->
<svg version="1.1" id="Laag_1" xmlns="http://www.w3.org/2000/svg" xmlns:xlink="http://www.w3.org/1999/xlink" x="0px" y="0px"
	 viewBox="0 0 66 66" style="enable-background:new 0 0 66 66;" xml:space="preserve">
<style type="text/css">
	.st0{fill:none;stroke:#6061B1;stroke-width:3;stroke-miterlimit:10;}
</style>
<g id="grid">
</g>
<path class="st0" d="M57.2,29.6l-19.6-3c0.5-1.3,1.2-3.4,2.1-6.1c2.2-6.4,1-10-0.4-11.8C38,7,36.1,6.1,33.9,6.2l-1,0l-3.9,11.2
	L17.4,33L4.1,33.4v23.9l16.3,0c1.2,0.3,4.7,1.3,9,2c6.2,0.9,10.3,0.8,13.1,0.2c0.1,0,0.1,0,0.2,0l0.8,0.3c2.4,0.8,5-0.5,5.8-2.9
	l0.1-0.3c0.3-1,0.3-2,0-2.9c2.3,0.1,4.3-1.6,4.6-3.9l0-0.3c0.1-0.8,0-1.5-0.2-2.2c0-0.1,0-0.1,0-0.2c2.3,0.1,4.3-1.6,4.7-3.9l0-0.3
	c0.2-1.5-0.3-2.9-1.3-3.9c1.9-0.3,3.4-1.8,3.7-3.8l0-0.3C61.4,32.3,59.7,29.9,57.2,29.6z"/>
</svg>
