<?xml version="1.0" encoding="utf-8"?>
<!-- Generator: Adobe Illustrator 20.1.0, SVG Export Plug-In . SVG Version: 6.00 Build 0)  -->
<svg version="1.1" id="Laag_1" xmlns="http://www.w3.org/2000/svg" xmlns:xlink="http://www.w3.org/1999/xlink" x="0px" y="0px"
	 viewBox="0 0 66 66" style="enable-background:new 0 0 66 66;" xml:space="preserve">
<style type="text/css">
	.st0{fill:none;stroke:#6061B1;stroke-width:4;stroke-miterlimit:10;}
</style>
<g id="grid">
</g>
<path class="st0" d="M57.4,29.2l-19.3-3c0.5-1.3,1.2-3.3,2.1-6c2.2-6.3,1-9.8-0.4-11.6c-1.3-1.7-3.2-2.6-5.3-2.5h-1l-3.8,11
	L18.2,32.6L5.1,33v23.5h16c1.2,0.3,4.6,1.3,8.9,2c6.1,0.9,10.1,0.8,12.9,0.2c0.1,0,0.1,0,0.2,0l0.8,0.3c2.4,0.8,4.9-0.5,5.7-2.9
	l0.1-0.3c0.3-1,0.3-2,0-2.9c2.3,0.1,4.2-1.6,4.5-3.8v-0.3c0.1-0.8,0-1.5-0.2-2.2c0-0.1,0-0.1,0-0.2c2.3,0.1,4.2-1.6,4.6-3.8v-0.3
	c0.2-1.5-0.3-2.9-1.3-3.8c1.9-0.3,3.3-1.8,3.6-3.7v-0.3C61.5,31.9,59.8,29.5,57.4,29.2z"/>
</svg>
