<?xml version="1.0" encoding="utf-8"?>
<!-- Generator: Adobe Illustrator 20.1.0, SVG Export Plug-In . SVG Version: 6.00 Build 0)  -->
<svg version="1.1" id="Laag_1" xmlns="http://www.w3.org/2000/svg" xmlns:xlink="http://www.w3.org/1999/xlink" x="0px" y="0px"
	 viewBox="0 0 70 70" style="enable-background:new 0 0 70 70;" xml:space="preserve">
<style type="text/css">
	.st0{fill:#6061B1;}
</style>
<path class="st0" d="M35,0C15.7,0,0,15.7,0,35c0,19.3,15.7,35,35,35s35-15.7,35-35C70,15.7,54.3,0,35,0z M43,35h-5.2
	c0,8.3,0,18.6,0,18.6H30c0,0,0-10.2,0-18.6h-3.7v-6.6H30v-4.3c0-3,1.4-7.8,7.8-7.8l5.7,0v6.4c0,0-3.5,0-4.2,0
	c-0.7,0-1.6,0.3-1.6,1.8v3.9h5.9L43,35z"/>
</svg>
