<?xml version="1.0" encoding="utf-8"?>
<!-- Generator: Adobe Illustrator 20.1.0, SVG Export Plug-In . SVG Version: 6.00 Build 0)  -->
<svg version="1.1" id="Layer_1" xmlns="http://www.w3.org/2000/svg" xmlns:xlink="http://www.w3.org/1999/xlink" x="0px" y="0px"
	 viewBox="0 0 70 70" style="enable-background:new 0 0 70 70;" xml:space="preserve">
<style type="text/css">
	.st0{fill:#6061B1;}
	.st1{fill:#FFFFFF;}
</style>
<path class="st0" d="M35,0C15.7,0,0,15.7,0,35s15.7,35,35,35s35-15.7,35-35S54.3,0,35,0z"/>
<g id="icon-youtube">
	<g>
		<g id="Lozenge_2_">
			<g>
				<path class="st1" d="M50.5,28.4c0,0-0.3-2.2-1.3-3.1C48,24,46.7,24,46.1,23.9C41.6,23.6,35,23.6,35,23.6h0c0,0-6.6,0-11.1,0.3
					c-0.6,0.1-2,0.1-3.2,1.3c-0.9,1-1.3,3.1-1.3,3.1s-0.3,2.6-0.3,5.1v2.4c0,2.6,0.3,5.1,0.3,5.1s0.3,2.2,1.3,3.1
					c1.2,1.3,2.8,1.2,3.5,1.4c2.5,0.2,10.8,0.3,10.8,0.3s6.6,0,11.1-0.3c0.6-0.1,2-0.1,3.2-1.3c0.9-1,1.3-3.1,1.3-3.1
					s0.3-2.6,0.3-5.1v-2.4C50.8,30.9,50.5,28.4,50.5,28.4z"/>
			</g>
		</g>
		<g>
			<path class="st0" d="M31.7,38.8l8.5-4.4l-8.5-4.5L31.7,38.8z"/>
		</g>
	</g>
</g>
</svg>
