<?xml version="1.0" encoding="utf-8"?>
<!-- Generator: Adobe Illustrator 20.1.0, SVG Export Plug-In . SVG Version: 6.00 Build 0)  -->
<svg version="1.1" xmlns="http://www.w3.org/2000/svg" xmlns:xlink="http://www.w3.org/1999/xlink" x="0px" y="0px"
	 viewBox="0 0 66 66" style="enable-background:new 0 0 66 66;" xml:space="preserve">
<style type="text/css">
	.st0{fill:#6061B1;}
	.st1{fill:none;}
</style>
<symbol  id="icon-contact-opnemen" viewBox="-32 -34 66 66">
	<g>
		<path class="st0" d="M23.5,26c2.5,0,4.5-2,4.5-4.5V-9.4c0-2.5-2-4.5-4.5-4.5H0.6h-1.2l-0.9-0.9l-9.1-9.1v7v3h-3h-7.9
			c-2.5,0-4.5,2-4.5,4.5v30.9c0,2.5,2,4.5,4.5,4.5H23.5 M23.5,29h-45.1c-4.1,0-7.5-3.3-7.5-7.5V-9.4c0-4.1,3.3-7.5,7.5-7.5h7.9V-31
			L0.6-16.8h22.9c4.1,0,7.5,3.3,7.5,7.5v30.9C31,25.7,27.7,29,23.5,29L23.5,29z"/>
	</g>
	<rect x="-32" y="-34" class="st1" width="66" height="66"/>
</symbol>
<g id="grid">
</g>
<g id="icons">
	
		<use xlink:href="#icon-contact-opnemen"  width="66" height="66" id="XMLID_3_" x="-32" y="-34" transform="matrix(1 0 0 -1 32 32)" style="overflow:visible;"/>
	<g id="icon-service">
	</g>
</g>
</svg>
